<?xml version='1.0'?>
<svg xmlns="http://www.w3.org/2000/svg" xmlns:xlink="http://www.w3.org/1999/xlink" width="1045.250000" height="111.000000">
<defs>
  <filter id="ds" x="0" y="0">
    <feOffset in="SourceAlpha" dx="2" dy="2" />
    <feComponentTransfer><feFuncA type="linear" slope="0.2"/></feComponentTransfer>
    <feGaussianBlur result="blurOut" stdDeviation="1" />
    <feBlend in="SourceGraphic" in2="blurOut" mode="normal" />
  </filter>
  <pattern id="disordered-hatch" patternUnits="userSpaceOnUse" width="4" height="4">
    <path d="M-1,1 l2,-2 M0,4 l4,-4 M3,5 l2,-2" stroke="#000000" opacity="0.3" />
  </pattern>
</defs>
<line x1="20.166667" x2="20.166667" y1="19.000000" y2="47.000000" stroke="#BABDB6" stroke-width="2"/><a xlink:title="-o=../../cptac2p/analysis_results/phospho_network/cytoscape/TP53.svg"><circle cx="20.166667" cy="19.000000" r="4.000000" fill="#ff0000" /></a><line x1="337.916667" x2="337.916667" y1="19.000000" y2="47.000000" stroke="#BABDB6" stroke-width="2"/><a xlink:title="T125"><circle cx="337.916667" cy="19.000000" r="4.000000" fill="#0000ff" /></a><line x1="467.083333" x2="467.083333" y1="19.000000" y2="47.000000" stroke="#BABDB6" stroke-width="2"/><a xlink:title="R175H"><circle cx="467.083333" cy="19.000000" r="4.000000" fill="#ff0000" /></a><line x1="655.666667" x2="655.666667" y1="19.000000" y2="47.000000" stroke="#BABDB6" stroke-width="2"/><a xlink:title="R248Q"><circle cx="655.666667" cy="19.000000" r="4.000000" fill="#ff0000" /></a><line x1="720.250000" x2="720.250000" y1="19.000000" y2="47.000000" stroke="#BABDB6" stroke-width="2"/><a xlink:title="R273C"><circle cx="720.250000" cy="19.000000" r="4.000000" fill="#ff0000" /></a><a xlink:title="P53_HUMAN, Cellular tumor antigen p53 (393aa)"><rect fill="#BABDB6" x="15.000000" y="47.000000" width="1015.250000" height="14.000000"/></a><g transform="translate(27.916667,42.000000)"><a xlink:href="http://pfam.xfam.org/family/PF08563" xlink:title="P53 transactivation motif"><rect fill="#2dcf00" x="0" y="0" width="62.000000" height="24.000000" filter="url(#ds)"/><text style="font-size:12px;font-family:Arial;fill:#ffffff;" text-anchor="middle" x="31.000000" y="16.000000">P53_TAD</text></a></g>
<g transform="translate(260.416667,42.000000)"><a xlink:href="http://pfam.xfam.org/family/PF00870" xlink:title="P53 DNA-binding domain"><rect fill="#ff5353" x="0" y="0" width="501.166667" height="24.000000" filter="url(#ds)"/><text style="font-size:12px;font-family:Arial;fill:#ffffff;" text-anchor="middle" x="250.583333" y="16.000000">P53 DNA-binding domain</text></a></g>
<g transform="translate(839.083333,42.000000)"><a xlink:href="http://pfam.xfam.org/family/PF07710" xlink:title="P53 tetramerisation motif"><rect fill="#5b5bff" x="0" y="0" width="100.750000" height="24.000000" filter="url(#ds)"/><text style="font-size:12px;font-family:Arial;fill:#ffffff;" text-anchor="middle" x="50.375000" y="16.000000">P53_tetramer</text></a></g>
<g class="axis">
<line x1="15.000000" x2="1030.250000" y1="76.000000" y2="76.000000" stroke="#AAAAAA" /><line x1="15.000000" x2="15.000000" y1="76.000000" y2="81.000000" stroke="#AAAAAA" /><line x1="20.166667" x2="20.166667" y1="76.000000" y2="81.000000" stroke="#AAAAAA" /><text style="font-size:10px;font-family:Arial;fill:#000000;" text-anchor="middle" x="20.166667" y="91.000000">2</text><line x1="89.916667" x2="89.916667" y1="76.000000" y2="81.000000" stroke="#AAAAAA" /><text style="font-size:10px;font-family:Arial;fill:#000000;" text-anchor="middle" x="89.916667" y="91.000000">29</text><line x1="260.416667" x2="260.416667" y1="76.000000" y2="81.000000" stroke="#AAAAAA" /><text style="font-size:10px;font-family:Arial;fill:#000000;" text-anchor="middle" x="260.416667" y="91.000000">95</text><line x1="337.916667" x2="337.916667" y1="76.000000" y2="81.000000" stroke="#AAAAAA" /><text style="font-size:10px;font-family:Arial;fill:#000000;" text-anchor="middle" x="337.916667" y="91.000000">125</text><line x1="467.083333" x2="467.083333" y1="76.000000" y2="81.000000" stroke="#AAAAAA" /><text style="font-size:10px;font-family:Arial;fill:#000000;" text-anchor="middle" x="467.083333" y="91.000000">175</text><line x1="655.666667" x2="655.666667" y1="76.000000" y2="81.000000" stroke="#AAAAAA" /><text style="font-size:10px;font-family:Arial;fill:#000000;" text-anchor="middle" x="655.666667" y="91.000000">248</text><line x1="720.250000" x2="720.250000" y1="76.000000" y2="81.000000" stroke="#AAAAAA" /><text style="font-size:10px;font-family:Arial;fill:#000000;" text-anchor="middle" x="720.250000" y="91.000000">273</text><line x1="761.583333" x2="761.583333" y1="76.000000" y2="81.000000" stroke="#AAAAAA" /><text style="font-size:10px;font-family:Arial;fill:#000000;" text-anchor="middle" x="761.583333" y="91.000000">289</text><line x1="839.083333" x2="839.083333" y1="76.000000" y2="81.000000" stroke="#AAAAAA" /><text style="font-size:10px;font-family:Arial;fill:#000000;" text-anchor="middle" x="839.083333" y="91.000000">319</text><line x1="939.833333" x2="939.833333" y1="76.000000" y2="81.000000" stroke="#AAAAAA" /><text style="font-size:10px;font-family:Arial;fill:#000000;" text-anchor="middle" x="939.833333" y="91.000000">358</text><line x1="1030.250000" x2="1030.250000" y1="76.000000" y2="81.000000" stroke="#AAAAAA" /><text style="font-size:10px;font-family:Arial;fill:#000000;" text-anchor="middle" x="1030.250000" y="91.000000">393</text></g>
</svg>
